<svg width="319" height="157" viewBox="0 0 319 157" fill="none" xmlns="http://www.w3.org/2000/svg">
<path d="M56.4162 128.705C48.7091 130.385 41.761 130.437 35.5718 128.863C29.4346 127.208 24.3467 124.142 20.3083 119.663C16.2553 115.118 13.4686 109.357 11.948 102.381C10.4274 95.4048 10.5712 89.0402 12.3795 83.2871C14.1733 77.4676 17.5233 72.5616 22.4296 68.5691C27.3879 64.4957 33.7205 61.6191 41.4276 59.9392C49.4004 58.2014 56.4554 58.1599 62.5926 59.8149C68.7818 61.3889 73.9029 64.4484 77.9558 68.9936C81.9943 73.4723 84.7738 79.1997 86.2944 86.1759C87.815 93.1521 87.6784 99.55 85.8846 105.369C84.0763 111.123 80.6931 116.036 75.7348 120.109C70.8285 124.102 64.389 126.967 56.4162 128.705ZM52.5061 110.766C57.024 109.781 60.4512 108.582 62.7877 107.168C65.1097 105.687 66.5083 103.642 66.9835 101.033C67.5252 98.4098 67.3182 94.9055 66.3624 90.5204C65.3921 86.0689 64.122 82.7964 62.5521 80.7027C61.0342 78.5281 58.9187 77.284 56.2057 76.9706C53.4782 76.5908 49.8556 76.8932 45.3376 77.878C40.8197 78.8628 37.433 80.0881 35.1774 81.5541C32.9074 82.9537 31.5348 84.958 31.0595 87.567C30.6362 90.0952 30.9097 93.585 31.88 98.0365C32.8358 102.422 34.0395 105.709 35.491 107.898C37.0089 110.072 39.0984 111.357 41.7594 111.751C44.406 112.079 47.9882 111.751 52.5061 110.766Z" fill="#F6CA46"/>
<path d="M126.59 113.409C120.81 114.669 115.469 114.754 110.569 113.665C105.721 112.495 101.64 110.217 98.3273 106.833C95.0146 103.449 92.7717 99.0661 91.5987 93.6845C90.4112 88.2364 90.6266 83.3177 92.245 78.9284C93.8488 74.4726 96.6188 70.737 100.555 67.7215C104.543 64.6252 109.427 62.447 115.207 61.1871C121.054 59.9127 126.402 59.8607 131.25 61.0309C136.084 62.1348 140.158 64.3788 143.47 67.7629C146.768 71.0806 149.011 75.4635 150.199 80.9116C151.372 86.2932 151.156 91.2119 149.553 95.6677C147.949 100.124 145.186 103.892 141.264 106.974C137.328 109.99 132.437 112.135 126.59 113.409ZM122.984 96.8654C127.236 95.9386 129.948 94.6515 131.12 93.0041C132.278 91.2902 132.459 88.6062 131.662 84.952C130.866 81.2978 129.584 78.9324 127.819 77.8557C126.053 76.7791 123.044 76.7042 118.792 77.631C114.54 78.5579 111.835 79.8782 110.677 81.592C109.52 83.3059 109.339 85.9899 110.135 89.6441C110.932 93.2983 112.213 95.6637 113.979 96.7404C115.73 97.7506 118.732 97.7922 122.984 96.8654Z" fill="#F6CA46"/>
<path d="M199.059 97.613C193.146 98.9019 188.42 98.6098 184.879 96.7368C181.325 94.7973 178.726 91.8144 177.083 87.7879L174.193 88.4179L171.673 76.8573L173.566 76.4446C174.073 78.77 174.896 80.4697 176.035 81.5438C177.226 82.537 178.769 83.0706 180.664 83.1447C182.611 83.1379 184.98 82.8303 187.771 82.2221C190.694 81.5849 192.921 80.7863 194.452 79.8263C196.049 78.8518 197.068 77.6205 197.509 76.1324C197.95 74.6443 197.932 72.804 197.454 70.6115C196.962 68.3525 196.212 66.6715 195.206 65.5684C194.186 64.3989 192.754 63.7367 190.911 63.5817C189.119 63.3458 186.762 63.5464 183.839 64.1836C179.653 65.096 176.653 66.3414 174.84 67.9198C173.093 69.4837 172.618 72.0928 173.414 75.747L171.521 76.1597L167.627 65.0029L170.717 64.3295C170.428 59.1727 171.591 55.0913 174.207 52.0853C176.809 49.0128 181.033 46.8393 186.879 45.565C191.995 44.4499 196.546 44.5716 200.53 45.9301C204.567 47.2078 207.909 49.611 210.558 53.14C213.258 56.588 215.202 61.0361 216.389 66.4842C217.577 71.9323 217.701 76.8118 216.762 81.1228C215.808 85.3673 213.835 88.9291 210.843 91.8082C207.904 94.6065 203.976 96.5414 199.059 97.613ZM182.603 117.903L163.867 121.987L149.226 54.8162L166.766 50.993L169.851 65.1447L171.329 66.1796L182.603 117.903Z" fill="#F6CA46"/>
<path d="M254.066 85.6233C245.23 87.5494 238.131 87.3915 232.771 85.1497C227.41 82.9078 224.1 78.8968 222.84 73.1165L222.753 72.7178L241.49 68.634L241.707 69.6306C242.011 71.0258 242.764 71.7665 243.966 71.8525C245.234 71.924 247.562 71.5905 250.951 70.8519C254.206 70.1423 256.23 69.5273 257.021 69.0068C257.798 68.4199 258.092 67.6946 257.904 66.8309C257.73 66.0336 257.282 65.5745 256.56 65.4535C255.823 65.2661 254.263 65.293 251.88 65.5341L236.982 67.1111C231.684 67.7091 227.412 67.1091 224.166 65.311C220.907 63.4465 218.813 60.3881 217.886 56.136C217.235 53.1462 217.471 50.2411 218.597 47.4208C219.774 44.5195 222.089 41.8921 225.543 39.5385C229.064 37.1705 233.947 35.3058 240.192 33.9445C246.039 32.6701 251.074 32.3033 255.298 32.8441C259.589 33.3705 263.035 34.8117 265.636 37.1677C268.29 39.4428 270.065 42.64 270.963 46.7593L271.05 47.1579L252.314 51.2418L252.184 50.6438C251.995 49.7801 251.644 49.1259 251.129 48.6813C250.667 48.1557 249.775 47.8977 248.455 47.9071C247.201 47.902 245.312 48.1746 242.787 48.7249C239.731 49.391 237.855 50.0436 237.159 50.6824C236.515 51.2404 236.295 51.9844 236.497 52.9146C236.642 53.579 237.123 54.0308 237.941 54.2702C238.825 54.495 240.765 54.455 243.761 54.15L253.966 53.074C261.448 52.2782 266.852 52.8054 270.179 54.6555C273.505 56.5055 275.632 59.5566 276.558 63.8088C277.239 66.9315 276.817 69.9464 275.294 72.8536C273.822 75.6799 271.311 78.2107 267.762 80.4458C264.212 82.681 259.647 84.4068 254.066 85.6233Z" fill="#F6CA46"/>
<path d="M303.698 50.7943L284.564 54.965C284.274 53.6362 283.762 51.7644 283.027 49.3496C282.343 46.8538 281.543 44.14 280.626 41.2081C279.694 38.2098 278.762 35.2115 277.83 32.2132C276.883 29.1484 276.028 26.3422 275.264 23.7945C274.566 21.2323 274.051 19.1871 273.718 17.659L272.197 10.6828L296.514 5.38245L298.035 12.3587C298.368 13.8868 298.717 15.9681 299.083 18.6027C299.515 21.2229 299.938 24.1232 300.353 27.3038C300.753 30.418 301.154 33.5322 301.554 36.6464C301.94 39.6941 302.309 42.502 302.66 45.0702C303.063 47.5574 303.409 49.4655 303.698 50.7943ZM309.574 72.4805L288.147 77.1509L284.302 59.5111L305.729 54.8407L309.574 72.4805Z" fill="#F6CA46"/>
<path fill-rule="evenodd" clip-rule="evenodd" d="M34.8116 131.766L34.7908 131.76C28.1275 129.963 22.527 126.603 18.0803 121.672L18.0747 121.666L18.0692 121.66C13.6175 116.667 10.6283 110.413 9.01683 103.02C7.40626 95.631 7.52607 88.729 9.51508 82.3955C11.4905 75.9921 15.1884 70.5955 20.5306 66.2467C25.93 61.8125 32.7246 58.7657 40.7887 57.008C49.0929 55.198 56.6443 55.1082 63.3529 56.9128C70.08 58.6275 75.7243 61.9857 80.1897 66.9912C83.896 71.1036 86.5847 76.1164 88.3095 81.9532C88.57 80.57 88.9412 79.2187 89.4263 77.9012C91.234 72.8856 94.3597 68.6906 98.7228 65.346C103.119 61.9352 108.429 59.5941 114.569 58.256C120.764 56.9056 126.572 56.8191 131.936 58.1103C137.292 59.3366 141.877 61.8498 145.606 65.6566C147.198 67.2595 148.559 69.0648 149.696 71.0598L145.656 52.5239L169.058 47.4229L170.181 52.5728C170.683 51.7126 171.266 50.8978 171.931 50.1317C175.121 46.3721 180.057 43.9815 186.24 42.6338C191.749 41.4332 196.861 41.517 201.467 43.08C206.103 44.5542 209.941 47.3302 212.939 51.3149C213.506 52.041 214.04 52.8021 214.543 53.5974C214.441 51.1202 214.864 48.6817 215.81 46.3092L215.813 46.301L215.817 46.2929C217.279 42.6878 220.072 39.6368 223.854 37.0594L223.861 37.0544L223.869 37.0493C227.821 34.3911 233.107 32.4185 239.553 31.0134C245.607 29.6939 251.002 29.2708 255.672 29.8675C260.414 30.4506 264.47 32.0765 267.62 34.9174C270.847 37.6974 272.89 41.5132 273.894 46.1204L274.62 49.4502L268.584 50.7659C269.695 51.1009 270.715 51.5212 271.637 52.0337C275.828 54.3649 278.408 58.2098 279.49 63.1699C280.324 66.9984 279.793 70.7286 277.954 74.2393C276.171 77.6638 273.221 80.553 269.36 82.9845C265.431 85.4589 260.512 87.2889 254.705 88.5545C245.578 90.5439 237.778 90.4955 231.613 87.9174C225.913 85.5334 222.127 81.3461 220.38 75.5743C220.35 77.7178 220.124 79.7817 219.693 81.7616L219.691 81.7711L219.689 81.7806C218.612 86.5696 216.359 90.6631 212.924 93.9698L212.918 93.9755L212.912 93.9812C209.489 97.2396 205.024 99.3835 199.698 100.544C193.433 101.91 187.894 101.726 183.476 99.3885L183.459 99.3795L183.443 99.3703C182.709 98.9701 182.011 98.532 181.348 98.057L186.173 120.195L161.575 125.557L153.831 90.0304C153.628 92.321 153.147 94.5412 152.375 96.6838C150.57 101.698 147.458 105.923 143.118 109.333L143.104 109.344L143.089 109.356C138.738 112.689 133.419 114.991 127.229 116.34C121.099 117.676 115.312 117.792 109.918 116.593L109.892 116.587L109.865 116.581C104.5 115.286 99.9113 112.74 96.1835 108.932C93.5488 106.24 91.5463 103.026 90.1449 99.3392C89.9045 101.708 89.4418 104.014 88.7515 106.253L88.7491 106.261L88.7466 106.269C86.7522 112.614 83.0174 118.009 77.6392 122.427L77.6284 122.436C72.2668 126.799 65.3587 129.826 57.0551 131.636C48.998 133.392 41.5667 133.484 34.8324 131.771L34.8116 131.766ZM176.086 88.0052L177.083 87.788C177.902 89.7948 178.958 91.5425 180.252 93.0309C181.554 94.5287 183.097 95.764 184.879 96.7368C188.42 98.6099 193.146 98.902 199.059 97.6131C203.976 96.5414 207.904 94.6065 210.843 91.8083C213.835 88.9291 215.808 85.3673 216.762 81.1228C217.701 76.8118 217.577 71.9323 216.389 66.4842C215.202 61.0361 213.258 56.5881 210.558 53.14C207.91 49.6111 204.567 47.2078 200.53 45.9302C196.546 44.5716 191.995 44.4499 186.879 45.565C181.033 46.8394 176.809 49.0128 174.207 52.0853C172.839 53.6575 171.868 55.5237 171.295 57.6842C170.8 59.5487 170.601 61.6323 170.697 63.935C170.703 64.0658 170.709 64.1973 170.717 64.3296L169.72 64.5468L166.766 50.993L149.226 54.8162L163.867 121.987L182.603 117.903L176.086 88.0052ZM175.686 81.1846C175.799 81.3113 175.915 81.431 176.035 81.5439C176.606 82.02 177.258 82.3906 177.991 82.6555C178.786 82.9431 179.677 83.1062 180.664 83.1448C182.611 83.1379 184.98 82.8304 187.771 82.2221C190.694 81.5849 192.921 80.7863 194.452 79.8263C196.049 78.8518 197.068 77.6205 197.509 76.1324C197.95 74.6443 197.932 72.804 197.454 70.6115C196.962 68.3526 196.212 66.6715 195.206 65.5685C194.186 64.399 192.754 63.7367 190.911 63.5817C189.119 63.3458 186.762 63.5465 183.839 64.1837C179.653 65.096 176.653 66.3414 174.84 67.9198C174.823 67.9352 174.806 67.9507 174.789 67.9663C173.833 68.8459 173.269 70.0475 173.097 71.571C173.03 72.1599 173.022 72.7968 173.073 73.4818C173.12 74.1183 173.217 74.7964 173.365 75.516C173.381 75.5926 173.397 75.6696 173.414 75.747L173.566 76.4446C173.743 77.2535 173.957 77.9866 174.21 78.644C174.607 79.6782 175.1 80.525 175.686 81.1846ZM176.345 75.1081L176.497 75.8057C176.921 77.7472 177.518 78.7818 178.03 79.2994C178.597 79.7446 179.427 80.0844 180.719 80.1444C182.373 80.1319 184.497 79.8653 187.132 79.2909C189.908 78.6857 191.75 77.9793 192.858 77.2848L192.873 77.275L192.889 77.2654C193.989 76.5943 194.444 75.915 194.633 75.2797C194.88 74.4445 194.938 73.1549 194.523 71.2504C194.087 69.2485 193.496 68.1454 192.99 67.59L192.968 67.5657L192.946 67.5409C192.534 67.0685 191.885 66.6743 190.659 66.5712L190.589 66.5653L190.519 66.5561C189.223 66.3854 187.255 66.5096 184.478 67.1148C180.474 67.9876 178.074 69.092 176.828 70.167C176.293 70.656 175.639 71.8689 176.345 75.1081ZM220.075 70.2313L225.291 69.0944C224.392 68.7741 223.531 68.3888 222.713 67.9352L222.695 67.9253L222.677 67.9152C221.342 67.1515 220.174 66.2306 219.168 65.1664C219.22 65.3913 219.271 65.6176 219.321 65.8453C219.646 67.3368 219.898 68.7991 220.075 70.2313ZM233.365 67.3346C234.512 67.3283 235.718 67.2538 236.982 67.1111L251.88 65.5342C254.263 65.293 255.823 65.2662 256.56 65.4536C257.282 65.5745 257.73 66.0336 257.904 66.8309C258.092 67.6946 257.798 68.4199 257.021 69.0068C256.23 69.5273 254.206 70.1423 250.951 70.8519C247.562 71.5905 245.234 71.924 243.966 71.8525C242.764 71.7665 242.011 71.0259 241.707 69.6306L241.49 68.634L222.753 72.7179L222.84 73.1165C223.031 73.9895 223.268 74.8221 223.551 75.6144C225.147 80.068 228.22 83.2465 232.771 85.1497C238.131 87.3915 245.23 87.5494 254.066 85.6234C259.647 84.4069 264.212 82.6811 267.762 80.4459C271.311 78.2107 273.822 75.68 275.294 72.8537C276.817 69.9464 277.239 66.9315 276.558 63.8088C275.632 59.5567 273.505 56.5055 270.179 54.6555C267.76 53.3104 264.243 52.6646 259.628 52.7181C257.895 52.7382 256.008 52.8568 253.966 53.074L243.761 54.15C240.765 54.455 238.825 54.4951 237.941 54.2702C237.123 54.0309 236.642 53.579 236.497 52.9146C236.295 51.9844 236.515 51.2404 237.159 50.6825C237.855 50.0436 239.731 49.3911 242.787 48.7249C245.312 48.1746 247.201 47.902 248.455 47.9071C249.775 47.8977 250.667 48.1558 251.129 48.6813C251.564 49.0568 251.882 49.5816 252.084 50.2558C252.121 50.3801 252.154 50.5094 252.184 50.6439L252.314 51.2418L271.05 47.158L270.963 46.7593C270.772 45.8836 270.542 45.0496 270.271 44.2572C269.271 41.3223 267.725 38.9592 265.636 37.1677C263.035 34.8117 259.589 33.3705 255.298 32.8442C251.074 32.3034 246.039 32.6702 240.192 33.9446C233.947 35.3058 229.064 37.1705 225.543 39.5386C222.089 41.8922 219.774 44.5196 218.597 47.4208C217.471 50.2412 217.235 53.1462 217.886 56.136C218.813 60.3882 220.907 63.4465 224.166 65.3111C226.637 66.6801 229.704 67.3546 233.365 67.3346ZM143.47 67.7629C140.158 64.3788 136.084 62.1348 131.25 61.031C126.402 59.8607 121.054 59.9128 115.207 61.1872C109.427 62.4471 104.543 64.6252 100.555 67.7216C96.6188 70.737 93.8488 74.4726 92.245 78.9284C90.6266 83.3177 90.4112 88.2365 91.5987 93.6845C92.7717 99.0662 95.0146 103.449 98.3273 106.833C101.64 110.217 105.721 112.495 110.569 113.665C115.469 114.754 120.81 114.669 126.59 113.409C132.437 112.135 137.328 109.99 141.264 106.974C145.186 103.892 147.949 100.124 149.553 95.6678C151.156 91.212 151.372 86.2933 150.199 80.9116C149.011 75.4635 146.768 71.0806 143.47 67.7629ZM77.9558 68.9936C73.9029 64.4485 68.7818 61.3889 62.5926 59.8149C56.4554 58.16 49.4004 58.2014 41.4276 59.9392C33.7205 61.6191 27.3879 64.4957 22.4296 68.5691C17.5233 72.5616 14.1733 77.4676 12.3795 83.2871C10.5713 89.0402 10.4274 95.4048 11.948 102.381C13.4686 109.357 16.2554 115.118 20.3083 119.663C24.3468 124.142 29.4346 127.209 35.5718 128.863C41.761 130.437 48.7092 130.385 56.4162 128.705C64.389 126.967 70.8286 124.102 75.7348 120.109C80.6931 116.036 84.0763 111.123 85.8846 105.37C87.6784 99.55 87.815 93.1521 86.2944 86.1759C84.7738 79.1997 81.9943 73.4723 77.9558 68.9936ZM64.0384 100.461L64.0455 100.427C64.4637 98.4015 64.3501 95.375 63.4312 91.1594C62.4945 86.8617 61.3388 84.0853 60.1519 82.5024L60.1213 82.4617L60.0921 82.4198C59.0825 80.9734 57.7499 80.169 55.8614 79.9508L55.8266 79.9468L55.7919 79.942C53.5737 79.6331 50.3507 79.8558 45.9765 80.8092C41.5958 81.7641 38.6208 82.8941 36.8123 84.0695L36.7823 84.089L36.7519 84.1078C35.2074 85.06 34.3397 86.3277 34.0148 88.0838C33.6905 90.0502 33.8724 93.0904 34.8112 97.3976C35.7304 101.615 36.8283 104.472 37.9712 106.209C38.9997 107.669 40.3368 108.5 42.1644 108.778C44.315 109.038 47.4991 108.787 51.8672 107.835C56.2304 106.884 59.2775 105.778 61.2038 104.62C62.8338 103.571 63.7147 102.238 64.0321 100.496L64.0384 100.461ZM62.7877 107.168C60.4512 108.582 57.024 109.781 52.5061 110.766C47.9882 111.751 44.406 112.079 41.7594 111.751C39.0984 111.357 37.0089 110.072 35.491 107.898C34.0395 105.709 32.8358 102.422 31.88 98.0365C30.9097 93.585 30.6362 90.0952 31.0595 87.5671C31.5348 84.958 32.9074 82.9537 35.1775 81.5542C37.433 80.0882 40.8197 78.8628 45.3376 77.878C49.8556 76.8933 53.4783 76.5908 56.2057 76.9707C58.9187 77.2841 61.0342 78.5281 62.5521 80.7027C64.122 82.7964 65.3921 86.069 66.3624 90.5205C67.3182 94.9055 67.5252 98.4098 66.9835 101.033C66.5083 103.642 65.1097 105.687 62.7877 107.168ZM128.656 91.2929C128.462 91.5499 127.983 91.9908 126.921 92.4947C125.841 93.0072 124.338 93.4999 122.345 93.9343C120.352 94.3687 118.781 94.5462 117.585 94.5296C116.41 94.5133 115.791 94.3117 115.508 94.1586C114.831 93.724 113.806 92.3978 113.067 89.0052C112.315 85.5579 112.719 83.9281 113.163 83.2712C113.344 83.0041 113.808 82.5403 114.89 82.0124C115.955 81.4926 117.445 80.9951 119.431 80.5622C121.417 80.1294 122.978 79.9617 124.163 79.9912C125.366 80.0211 125.982 80.2494 126.257 80.4172C126.934 80.8299 127.979 82.1436 128.731 85.5909C129.47 88.9835 129.091 90.6158 128.656 91.2929ZM306.925 51.5096L308.021 51.2707L313.144 74.7728L285.855 80.721L280.732 57.2188L281.928 56.9582L281.633 55.604C281.369 54.3945 280.884 52.6141 280.157 50.2233L280.144 50.1827L280.133 50.1417C279.461 47.6864 278.671 45.0077 277.763 42.1041L277.761 42.0986L277.739 42.0283L277.734 42.0107L277.717 41.958L277.712 41.9405L277.69 41.8702L277.684 41.8526L277.668 41.7999L277.663 41.7824L277.641 41.7121L277.635 41.6945L277.619 41.6418L277.613 41.6242L277.597 41.5715L277.592 41.554L277.57 41.4837L277.564 41.4661L277.548 41.4134L277.542 41.3959L277.521 41.3256L277.515 41.308L277.499 41.2553L277.493 41.2377L277.471 41.1675L277.466 41.1499L277.45 41.0972L277.444 41.0796L277.422 41.0093L277.417 40.9918L277.4 40.9391L277.395 40.9215L277.373 40.8512L277.368 40.8337L277.351 40.781L277.346 40.7634L277.324 40.6931L277.319 40.6756L277.302 40.6228L277.297 40.6053L277.28 40.5526L277.275 40.535L277.253 40.4647L277.248 40.4472L277.231 40.3945L277.226 40.3769L277.204 40.3066L277.198 40.2891L277.182 40.2363L277.177 40.2188L277.155 40.1485L277.149 40.1309L277.133 40.0782L277.127 40.0607L277.106 39.9904L277.1 39.9728L277.084 39.9201L277.078 39.9025L277.056 39.8323L277.051 39.8147L277.035 39.762L277.029 39.7444L277.007 39.6742L277.002 39.6566L276.985 39.6039L276.98 39.5863L276.964 39.5336L276.958 39.516L276.936 39.4458L276.931 39.4282L276.914 39.3755L276.909 39.3579L276.887 39.2877L276.882 39.2701L276.865 39.2174L276.86 39.1998L276.838 39.1295L276.833 39.112L276.816 39.0593L276.811 39.0417L276.789 38.9714L276.783 38.9539L276.767 38.9012L276.762 38.8836L276.74 38.8133L276.734 38.7957L276.718 38.743L276.712 38.7255L276.691 38.6552L276.685 38.6376L276.669 38.5849L276.663 38.5674L276.641 38.4971L276.636 38.4795L276.62 38.4268L276.614 38.4092L276.598 38.3565L276.592 38.339L276.57 38.2687L276.565 38.2511L276.549 38.1984L276.543 38.1809L276.521 38.1106L276.516 38.093L276.499 38.0403L276.494 38.0227L276.472 37.9525L276.467 37.9349L276.45 37.8822L276.445 37.8646L276.423 37.7944L276.418 37.7768L276.401 37.7241L276.396 37.7065L276.374 37.6362L276.368 37.6187L276.352 37.566L276.347 37.5484L276.325 37.4781L276.319 37.4606L276.303 37.4079L276.297 37.3903L276.281 37.3376L276.276 37.32L276.254 37.2497L276.248 37.2322L276.232 37.1795L276.226 37.1619L276.205 37.0916L276.199 37.0741L276.183 37.0214L276.177 37.0038L276.155 36.9335L276.15 36.9159L276.134 36.8632L276.128 36.8457L276.106 36.7754L276.101 36.7578L276.084 36.7051L276.079 36.6876L276.057 36.6173L276.052 36.5997L276.035 36.547L276.03 36.5294L276.008 36.4592L276.003 36.4416L275.986 36.3889L275.981 36.3713L275.959 36.3011L275.953 36.2835L275.937 36.2308L275.932 36.2132L275.915 36.1605L275.91 36.1429L275.888 36.0727L275.882 36.0551L275.866 36.0024L275.861 35.9848L275.839 35.9146L275.833 35.897L275.817 35.8443L275.811 35.8267L275.79 35.7564L275.784 35.7389L275.768 35.6862L275.762 35.6686L275.74 35.5983L275.735 35.5808L275.719 35.5281L275.713 35.5105L275.691 35.4402L275.686 35.4226L275.669 35.3699L275.664 35.3524L275.642 35.2821L275.637 35.2645L275.62 35.2118L275.615 35.1943L275.598 35.1415L275.593 35.124L275.571 35.0537L275.566 35.0361L275.549 34.9834L275.544 34.9659L275.522 34.8956L275.517 34.878L275.5 34.8253L275.495 34.8078L275.473 34.7375L275.467 34.7199L275.451 34.6672L275.446 34.6496L275.424 34.5794L275.418 34.5618L275.402 34.5091L275.396 34.4915L275.375 34.4212L275.369 34.4037L275.353 34.351L275.347 34.3334L275.325 34.2631L275.32 34.2456L275.304 34.1929L275.298 34.1753L275.276 34.105L275.271 34.0875L275.254 34.0347L275.249 34.0172L275.233 33.9645L275.227 33.9469L275.205 33.8766L275.2 33.8591L275.184 33.8064L275.178 33.7888L275.156 33.7185L275.151 33.701L275.134 33.6482L275.129 33.6307L275.107 33.5604L275.102 33.5428L275.085 33.4901L275.08 33.4726L275.058 33.4023L275.052 33.3847L275.036 33.332L275.031 33.3145L275.009 33.2442L275.003 33.2266L274.987 33.1739L274.981 33.1563L274.965 33.1036L274.963 33.0984C274.015 30.0274 273.157 27.2132 272.391 24.6563L272.38 24.6196L272.37 24.5827C271.666 21.9999 271.136 19.8987 270.787 18.2979L268.627 8.39055L298.807 1.81241L300.966 11.7198C301.321 13.3492 301.681 15.5043 302.049 18.1533C302.485 20.8024 302.911 23.7239 303.328 26.9158L303.329 26.9213L304.53 36.2638L304.531 36.2695C304.914 39.2944 305.279 42.08 305.627 44.6267C306.025 47.0791 306.359 48.9123 306.63 50.1554L306.925 51.5096ZM299.083 18.6028C298.717 15.9682 298.368 13.8868 298.035 12.3587L296.514 5.38249L272.197 10.6828L273.718 17.659C274.051 19.1871 274.566 21.2323 275.264 23.7945C276.028 26.3422 276.883 29.1485 277.83 32.2132L280.626 41.2082C281.543 44.14 282.343 46.8538 283.027 49.3496C283.762 51.7644 284.274 53.6363 284.564 54.9651L303.698 50.7943C303.409 49.4655 303.063 47.5575 302.66 45.0702C302.309 42.5021 301.94 39.6941 301.554 36.6464L300.353 27.3039C299.938 24.1233 299.515 21.2229 299.083 18.6028ZM131.12 93.0041C129.948 94.6515 127.236 95.9386 122.984 96.8654C118.732 97.7923 115.73 97.7506 113.979 96.7404C112.213 95.6638 110.932 93.2983 110.135 89.6441C109.339 85.9899 109.52 83.3059 110.677 81.5921C111.835 79.8782 114.54 78.5579 118.792 77.6311C123.044 76.7042 126.053 76.7791 127.819 77.8558C129.584 78.9324 130.866 81.2978 131.662 84.952C132.459 88.6062 132.278 91.2903 131.12 93.0041ZM309.574 72.4806L305.729 54.8407L284.302 59.5111L288.147 77.1509L309.574 72.4806Z" fill="#272725"/>
</svg>
