<svg xmlns="http://www.w3.org/2000/svg" width="319" height="157" fill="none"><path fill="#F6CA46" d="M56.416 128.705c-7.707 1.68-14.655 1.732-20.844.158-6.137-1.655-11.225-4.721-15.264-9.2-4.053-4.545-6.84-10.306-8.36-17.282-1.52-6.976-1.377-13.34.431-19.094 1.794-5.82 5.144-10.725 10.05-14.718 4.959-4.073 11.292-6.95 18.999-8.63 7.972-1.738 15.027-1.78 21.165-.124 6.189 1.574 11.31 4.633 15.363 9.179 4.038 4.478 6.818 10.206 8.338 17.182 1.521 6.976 1.384 13.374-.41 19.193-1.808 5.754-5.19 10.667-10.15 14.74-4.905 3.993-11.345 6.858-19.318 8.596Zm-3.91-17.939c4.518-.985 7.945-2.184 10.282-3.598 2.322-1.481 3.72-3.526 4.196-6.135.541-2.623.334-6.127-.622-10.513-.97-4.451-2.24-7.724-3.81-9.817-1.518-2.175-3.633-3.419-6.346-3.732-2.728-.38-6.35-.078-10.868.907-4.518.985-7.905 2.21-10.16 3.676-2.27 1.4-3.643 3.404-4.118 6.013-.424 2.528-.15 6.018.82 10.47.956 4.385 2.16 7.672 3.611 9.861 1.518 2.174 3.607 3.459 6.268 3.853 2.647.328 6.23 0 10.747-.985ZM126.59 113.409c-5.78 1.26-11.121 1.345-16.021.256-4.848-1.17-8.929-3.448-12.242-6.832-3.312-3.384-5.555-7.767-6.728-13.148-1.188-5.449-.972-10.367.646-14.757 1.604-4.455 4.374-8.191 8.31-11.206 3.988-3.097 8.872-5.275 14.652-6.535 5.847-1.274 11.195-1.326 16.043-.156 4.834 1.104 8.908 3.348 12.22 6.732 3.298 3.318 5.541 7.7 6.729 13.149 1.173 5.381.957 10.3-.646 14.756-1.604 4.456-4.367 8.224-8.289 11.306-3.936 3.016-8.827 5.161-14.674 6.435Zm-3.606-16.544c4.252-.926 6.964-2.213 8.136-3.86 1.158-1.715 1.339-4.399.542-8.053-.796-3.654-2.078-6.02-3.843-7.096-1.766-1.077-4.775-1.152-9.027-.225-4.252.927-6.957 2.247-8.115 3.961-1.157 1.714-1.338 4.398-.542 8.052.797 3.654 2.078 6.02 3.844 7.096 1.751 1.01 4.753 1.052 9.005.125ZM199.059 97.613c-5.913 1.289-10.639.997-14.18-.876-3.554-1.94-6.153-4.923-7.796-8.95l-2.89.63-2.52-11.56 1.893-.412c.507 2.325 1.33 4.025 2.469 5.099 1.191.993 2.734 1.527 4.629 1.6 1.947-.006 4.316-.314 7.107-.922 2.923-.637 5.15-1.436 6.681-2.396 1.597-.974 2.616-2.205 3.057-3.694.441-1.488.423-3.328-.055-5.52-.492-2.26-1.242-3.94-2.248-5.044-1.02-1.17-2.452-1.831-4.295-1.986-1.792-.236-4.149-.036-7.072.602-4.186.912-7.186 2.157-8.999 3.736-1.747 1.564-2.222 4.173-1.426 7.827l-1.893.413-3.894-11.157 3.09-.674c-.289-5.156.874-9.238 3.49-12.244 2.602-3.072 6.826-5.246 12.672-6.52 5.116-1.115 9.667-.993 13.651.365 4.037 1.278 7.379 3.681 10.028 7.21 2.7 3.448 4.644 7.896 5.831 13.344 1.188 5.448 1.312 10.328.373 14.639-.954 4.244-2.927 7.806-5.919 10.685-2.939 2.798-6.867 4.733-11.784 5.805Zm-16.456 20.29-18.736 4.084-14.641-67.17 17.54-3.824 3.085 14.152 1.478 1.035 11.274 51.723ZM254.066 85.623c-8.836 1.926-15.935 1.768-21.295-.473-5.361-2.242-8.671-6.253-9.931-12.034l-.087-.398 18.737-4.084.217.997c.304 1.395 1.057 2.135 2.259 2.222 1.268.071 3.596-.262 6.985-1.001 3.255-.71 5.279-1.325 6.07-1.845.777-.587 1.071-1.312.883-2.176-.174-.797-.622-1.257-1.344-1.377-.737-.188-2.297-.161-4.68.08l-14.898 1.577c-5.298.598-9.57-.002-12.816-1.8-3.259-1.865-5.353-4.923-6.28-9.175-.651-2.99-.415-5.895.711-8.715 1.177-2.901 3.492-5.529 6.946-7.883 3.521-2.367 8.404-4.232 14.649-5.593 5.847-1.275 10.882-1.642 15.106-1.1 4.291.526 7.737 1.967 10.338 4.323 2.654 2.275 4.429 5.472 5.327 9.591l.087.399-18.736 4.084-.13-.598c-.189-.864-.54-1.518-1.055-1.963-.462-.525-1.354-.783-2.674-.774-1.254-.005-3.143.268-5.668.818-3.056.666-4.932 1.319-5.628 1.957-.644.558-.864 1.302-.662 2.233.145.664.626 1.116 1.444 1.355.884.225 2.824.185 5.82-.12l10.205-1.076c7.482-.796 12.886-.269 16.213 1.582 3.326 1.85 5.453 4.9 6.379 9.153.681 3.123.259 6.137-1.264 9.045-1.472 2.826-3.983 5.357-7.532 7.592-3.55 2.235-8.115 3.96-13.696 5.177ZM303.698 50.794l-19.134 4.171c-.29-1.329-.802-3.2-1.537-5.615a239.438 239.438 0 0 0-2.401-8.142l-2.796-8.995c-.947-3.065-1.802-5.87-2.566-8.419-.698-2.562-1.213-4.607-1.546-6.135l-1.521-6.976 24.317-5.3 1.521 6.976c.333 1.528.682 3.61 1.048 6.244.432 2.62.855 5.52 1.27 8.7l1.201 9.343c.386 3.048.755 5.856 1.106 8.424.403 2.487.749 4.395 1.038 5.724Zm5.876 21.687-21.427 4.67-3.845-17.64 21.427-4.67 3.845 17.64Z"/><path fill="#272725" fill-rule="evenodd" d="m34.812 131.766-.021-.006c-6.663-1.797-12.264-5.157-16.71-10.088l-.006-.006-.006-.006c-4.451-4.993-7.44-11.247-9.052-18.64-1.61-7.389-1.49-14.291.498-20.624 1.976-6.404 5.673-11.8 11.016-16.15 5.399-4.433 12.194-7.48 20.258-9.238 8.304-1.81 15.855-1.9 22.564-.095 6.727 1.715 12.371 5.073 16.837 10.078 3.706 4.113 6.395 9.125 8.12 14.962a25.21 25.21 0 0 1 1.116-4.052c1.808-5.015 4.934-9.21 9.297-12.555 4.396-3.41 9.706-5.752 15.846-7.09 6.195-1.35 12.003-1.437 17.367-.146 5.356 1.227 9.941 3.74 13.67 7.547a25.649 25.649 0 0 1 4.09 5.403l-4.04-18.536 23.402-5.101 1.123 5.15a16.09 16.09 0 0 1 1.75-2.441c3.19-3.76 8.126-6.15 14.309-7.498 5.509-1.2 10.621-1.117 15.227.446 4.636 1.474 8.474 4.25 11.472 8.235a28.168 28.168 0 0 1 1.604 2.282c-.102-2.477.321-4.915 1.267-7.288l.003-.008.004-.008c1.462-3.605 4.255-6.656 8.037-9.234l.007-.005.008-.005c3.952-2.658 9.238-4.63 15.684-6.036 6.054-1.32 11.449-1.742 16.119-1.146 4.742.584 8.798 2.21 11.948 5.05 3.227 2.78 5.27 6.596 6.274 11.203l.726 3.33-6.036 1.316c1.111.335 2.131.755 3.053 1.268 4.191 2.33 6.771 6.176 7.853 11.136.834 3.828.303 7.559-1.536 11.07-1.783 3.424-4.733 6.313-8.594 8.745-3.929 2.474-8.848 4.304-14.655 5.57-9.127 1.989-16.927 1.94-23.092-.638-5.7-2.384-9.486-6.57-11.233-12.343a31.08 31.08 0 0 1-.687 6.188l-.002.01-.002.009c-1.077 4.789-3.33 8.882-6.765 12.189l-.006.005-.006.006c-3.423 3.259-7.888 5.403-13.214 6.563-6.265 1.366-11.804 1.182-16.222-1.156l-.017-.009-.016-.009c-.734-.4-1.432-.838-2.095-1.313l4.825 22.138-24.598 5.362-7.744-35.527a26.43 26.43 0 0 1-1.456 6.654c-1.805 5.014-4.917 9.239-9.257 12.649l-.014.011-.015.012c-4.351 3.333-9.67 5.635-15.86 6.984-6.13 1.336-11.917 1.452-17.311.253l-.026-.006-.027-.006c-5.365-1.295-9.954-3.841-13.681-7.649-2.635-2.692-4.638-5.906-6.04-9.593a35.616 35.616 0 0 1-1.393 6.914l-.002.008-.002.008c-1.995 6.345-5.73 11.74-11.108 16.158l-.01.009c-5.362 4.363-12.27 7.39-20.574 9.2-8.057 1.756-15.488 1.848-22.223.135l-.02-.005Zm141.274-43.76.997-.218c.819 2.007 1.875 3.755 3.169 5.243a16.635 16.635 0 0 0 4.627 3.706c3.541 1.873 8.267 2.165 14.18.876 4.917-1.072 8.845-3.007 11.784-5.805 2.992-2.879 4.965-6.44 5.919-10.685.939-4.311.815-9.19-.373-14.639-1.187-5.448-3.131-9.896-5.831-13.344-2.648-3.529-5.991-5.932-10.028-7.21-3.984-1.358-8.535-1.48-13.651-.365-5.846 1.274-10.07 3.448-12.672 6.52-1.368 1.572-2.339 3.439-2.912 5.6-.495 1.864-.694 3.947-.598 6.25.006.13.012.262.02.395l-.997.217-2.954-13.554-17.54 3.823 14.641 67.171 18.736-4.084-6.517-29.898Zm-.4-6.821c.113.126.229.246.349.359a6.448 6.448 0 0 0 1.956 1.112c.795.287 1.686.45 2.673.489 1.947-.007 4.316-.315 7.107-.923 2.923-.637 5.15-1.436 6.681-2.396 1.597-.974 2.616-2.205 3.057-3.694.441-1.488.423-3.328-.055-5.52-.492-2.26-1.242-3.94-2.248-5.043-1.02-1.17-2.452-1.832-4.295-1.987-1.792-.236-4.149-.035-7.072.602-4.186.912-7.186 2.157-8.999 3.736l-.051.046c-.956.88-1.52 2.082-1.692 3.605a10.22 10.22 0 0 0-.024 1.91c.047.637.144 1.315.292 2.035l.049.231.152.698c.177.809.391 1.542.644 2.199.397 1.034.89 1.881 1.476 2.54Zm.659-6.077.152.698c.424 1.941 1.021 2.976 1.533 3.493.567.446 1.397.785 2.689.845 1.654-.012 3.778-.279 6.413-.853 2.776-.605 4.618-1.312 5.726-2.006l.015-.01.016-.01c1.1-.67 1.555-1.35 1.744-1.985.247-.835.305-2.125-.11-4.03-.436-2.001-1.027-3.105-1.533-3.66l-.022-.024-.022-.025c-.412-.472-1.061-.867-2.287-.97l-.07-.006-.07-.009c-1.296-.17-3.264-.046-6.041.559-4.004.873-6.404 1.977-7.65 3.052-.535.489-1.189 1.702-.483 4.941Zm43.73-4.877 5.216-1.137c-.899-.32-1.76-.705-2.578-1.159l-.018-.01-.018-.01a15.151 15.151 0 0 1-3.509-2.749 48.625 48.625 0 0 1 .907 5.065Zm13.29-2.896a33.956 33.956 0 0 0 3.617-.224l14.898-1.577c2.383-.241 3.943-.268 4.68-.08.722.12 1.17.58 1.344 1.377.188.864-.106 1.589-.883 2.176-.791.52-2.815 1.135-6.07 1.845-3.389.739-5.717 1.072-6.985 1-1.202-.086-1.955-.826-2.259-2.221l-.217-.997-18.737 4.084.087.398c.191.874.428 1.706.711 2.498 1.596 4.454 4.669 7.632 9.22 9.536 5.36 2.241 12.459 2.4 21.295.473 5.581-1.216 10.146-2.942 13.696-5.177 3.549-2.235 6.06-4.766 7.532-7.592 1.523-2.908 1.945-5.922 1.264-9.045-.926-4.252-3.053-7.303-6.379-9.153-2.419-1.346-5.936-1.991-10.551-1.938-1.733.02-3.62.139-5.662.356l-10.205 1.076c-2.996.305-4.936.345-5.82.12-.818-.24-1.299-.691-1.444-1.355-.202-.93.018-1.675.662-2.233.696-.638 2.572-1.29 5.628-1.957 2.525-.55 4.414-.823 5.668-.818 1.32-.01 2.212.249 2.674.774.435.376.753.9.955 1.575.037.124.07.253.1.388l.13.598 18.736-4.084-.087-.399a22.633 22.633 0 0 0-.692-2.502c-1-2.935-2.546-5.298-4.635-7.09-2.601-2.355-6.047-3.797-10.338-4.323-4.224-.54-9.259-.174-15.106 1.1-6.245 1.362-11.128 3.226-14.649 5.595-3.454 2.353-5.769 4.98-6.946 7.882-1.126 2.82-1.362 5.725-.711 8.715.927 4.252 3.021 7.31 6.28 9.175 2.471 1.37 5.538 2.044 9.199 2.024Zm-89.895.428c-3.312-3.384-7.386-5.628-12.22-6.732-4.848-1.17-10.196-1.118-16.043.156-5.78 1.26-10.664 3.438-14.652 6.535-3.936 3.015-6.706 6.75-8.31 11.206-1.618 4.39-1.834 9.309-.646 14.757 1.173 5.381 3.416 9.764 6.728 13.148 3.313 3.384 7.394 5.662 12.242 6.832 4.9 1.089 10.241 1.004 16.021-.256 5.847-1.274 10.738-3.419 14.674-6.435 3.922-3.082 6.685-6.85 8.289-11.306 1.603-4.456 1.819-9.375.646-14.756-1.188-5.449-3.431-9.831-6.729-13.15Zm-65.514 1.23c-4.053-4.544-9.174-7.604-15.363-9.178-6.138-1.655-13.193-1.614-21.165.124-7.707 1.68-14.04 4.557-18.998 8.63-4.907 3.993-8.257 8.899-10.05 14.718-1.809 5.753-1.953 12.118-.432 19.094 1.52 6.976 4.307 12.737 8.36 17.282 4.039 4.479 9.127 7.546 15.264 9.2 6.189 1.574 13.137 1.522 20.844-.158 7.973-1.738 14.413-4.603 19.319-8.596 4.958-4.073 8.341-8.986 10.15-14.739 1.793-5.82 1.93-12.218.41-19.194-1.521-6.976-4.3-12.704-8.34-17.182Zm-13.918 31.468.008-.034c.418-2.026.304-5.052-.615-9.268-.936-4.297-2.092-7.074-3.28-8.657l-.03-.04-.029-.042c-1.01-1.447-2.342-2.251-4.23-2.47l-.035-.003-.035-.005c-2.218-.309-5.441-.086-9.816.867-4.38.955-7.355 2.085-9.164 3.26l-.03.02-.03.019c-1.545.952-2.412 2.22-2.737 3.976-.325 1.966-.143 5.006.796 9.314.92 4.217 2.017 7.074 3.16 8.811 1.029 1.46 2.366 2.291 4.193 2.569 2.151.26 5.335.009 9.703-.943 4.363-.951 7.41-2.057 9.337-3.215 1.63-1.049 2.51-2.382 2.828-4.124l.006-.035Zm-1.25 6.707c-2.337 1.414-5.764 2.613-10.282 3.598-4.518.985-8.1 1.313-10.747.985-2.66-.394-4.75-1.679-6.268-3.853-1.452-2.189-2.655-5.476-3.611-9.861-.97-4.452-1.244-7.942-.82-10.47.475-2.609 1.847-4.613 4.118-6.013 2.255-1.466 5.642-2.691 10.16-3.676 4.518-.985 8.14-1.287 10.868-.907 2.713.313 4.828 1.557 6.346 3.732 1.57 2.093 2.84 5.366 3.81 9.817.956 4.386 1.163 7.89.622 10.513-.476 2.609-1.874 4.654-4.196 6.135Zm65.868-15.875c-.194.257-.673.698-1.735 1.202-1.08.512-2.583 1.005-4.576 1.44-1.993.434-3.564.611-4.76.595-1.175-.017-1.794-.218-2.077-.371-.677-.435-1.702-1.761-2.441-5.154-.752-3.447-.348-5.077.096-5.734.181-.267.645-.73 1.727-1.259 1.065-.52 2.555-1.017 4.541-1.45 1.986-.433 3.547-.6 4.732-.57 1.203.03 1.819.257 2.094.425.677.413 1.722 1.727 2.474 5.174.739 3.393.36 5.025-.075 5.702ZM306.925 51.51l1.096-.24 5.123 23.503-27.289 5.948-5.123-23.502 1.196-.26-.295-1.355c-.264-1.21-.749-2.99-1.476-5.38l-.013-.041-.011-.041a234.622 234.622 0 0 0-2.37-8.038l-.002-.005-.022-.07-.005-.018-.017-.053-.005-.017-.022-.07-.006-.018-.016-.053-.005-.018-.022-.07-.006-.018-.016-.052-.006-.018-.016-.053-.005-.017-.022-.07-.006-.018-.016-.053-.006-.017-.021-.07-.006-.018-.016-.053-.006-.017-.022-.07-.005-.018-.016-.053-.006-.017-.022-.07-.005-.018-.017-.053-.005-.017-.022-.07-.005-.018-.017-.053-.005-.018-.022-.07-.005-.017-.017-.053-.005-.018-.017-.052-.005-.018-.022-.07-.005-.018-.017-.053-.005-.017-.022-.07-.006-.018-.016-.053-.005-.017-.022-.07-.006-.018-.016-.053-.006-.017-.021-.07-.006-.018-.016-.053-.006-.017-.022-.07-.005-.018-.016-.053-.006-.018-.022-.07-.005-.017-.017-.053-.005-.018-.016-.052-.006-.018-.022-.07-.005-.018-.017-.052-.005-.018-.022-.07-.005-.018-.017-.053-.005-.017-.022-.07-.005-.018-.017-.053-.005-.017-.022-.07-.006-.018-.016-.053-.005-.017-.022-.07-.006-.018-.016-.053-.006-.018-.021-.07-.006-.017-.016-.053-.006-.018-.022-.07-.005-.017-.016-.053-.006-.018-.016-.053-.006-.017-.022-.07-.005-.018-.016-.053-.006-.017-.022-.07-.005-.018-.017-.053-.005-.017-.022-.07-.005-.018-.017-.053-.005-.017-.022-.07-.005-.018-.017-.053-.005-.017-.022-.07-.006-.018-.016-.053-.005-.018-.022-.07-.006-.017-.016-.053-.006-.018-.016-.052-.005-.018-.022-.07-.006-.018-.016-.053-.006-.017-.021-.07-.006-.018-.016-.053-.006-.017-.022-.07-.005-.018-.016-.053-.006-.017-.022-.07-.005-.018-.017-.053-.005-.017-.022-.07-.005-.018-.017-.053-.005-.018-.022-.07-.005-.017-.017-.053-.005-.018-.022-.07-.006-.018-.016-.052-.005-.018-.017-.053-.005-.017-.022-.07-.006-.018-.016-.053-.005-.017-.022-.07-.006-.018-.016-.053-.006-.017-.021-.07-.006-.018-.016-.053-.006-.017-.022-.07-.005-.018-.016-.053-.006-.017-.022-.07-.005-.018-.017-.053-.005-.018-.022-.07-.005-.017-.017-.053-.005-.018-.017-.053-.005-.017-.022-.07-.005-.018-.017-.053-.005-.017-.022-.07-.005-.018-.017-.053-.005-.017-.022-.07-.006-.018-.016-.053-.005-.017-.022-.07-.006-.018-.016-.053-.006-.017-.021-.07-.006-.018-.016-.053-.006-.018-.022-.07-.005-.017-.016-.053-.006-.018-.022-.07-.005-.017-.017-.053-.005-.018-.016-.053-.006-.017-.022-.07-.005-.018-.016-.053-.006-.017-.022-.07-.005-.018-.017-.053-.005-.017-.022-.07-.005-.018-.017-.053-.005-.017-.022-.07-.006-.018-.016-.053-.005-.017-.022-.07-.006-.018-.016-.053-.006-.018-.016-.052-.002-.006c-.948-3.07-1.806-5.885-2.572-8.442l-.011-.036-.01-.037c-.704-2.583-1.234-4.684-1.583-6.285l-2.16-9.907 30.18-6.579 2.159 9.908c.355 1.63.715 3.784 1.083 6.433.436 2.65.862 5.57 1.279 8.763l.001.005 1.201 9.343.001.005c.383 3.025.748 5.811 1.096 8.358.398 2.452.732 4.285 1.003 5.528l.295 1.355Zm-7.842-32.907c-.366-2.635-.715-4.716-1.048-6.244l-1.521-6.977-24.317 5.3 1.521 6.977c.333 1.528.848 3.573 1.546 6.136a1059.56 1059.56 0 0 0 2.566 8.418l2.796 8.995a239.369 239.369 0 0 1 2.401 8.142c.735 2.414 1.247 4.286 1.537 5.615l19.134-4.17c-.289-1.33-.635-3.238-1.038-5.725-.351-2.568-.72-5.376-1.106-8.424l-1.201-9.342c-.415-3.18-.838-6.081-1.27-8.701ZM131.12 93.004c-1.172 1.647-3.884 2.935-8.136 3.861-4.252.927-7.254.886-9.005-.125-1.766-1.076-3.047-3.442-3.844-7.096-.796-3.654-.615-6.338.542-8.052 1.158-1.714 3.863-3.034 8.115-3.96 4.252-.928 7.261-.853 9.027.224 1.765 1.076 3.047 3.442 3.843 7.096.797 3.654.616 6.338-.542 8.052Zm178.454-20.523-3.845-17.64-21.427 4.67 3.845 17.64 21.427-4.67Z" clip-rule="evenodd"/></svg>