<svg width="100" height="100" viewBox="0 0 100 100" fill="none" xmlns="http://www.w3.org/2000/svg">
<mask id="path-1-inside-1_17_557" fill="white">
<path d="M100 50C100 36.7392 94.7322 24.0215 85.3553 14.6447C75.9785 5.26784 63.2608 1.00116e-06 50 0C36.7392 -1.00116e-06 24.0215 5.26784 14.6447 14.6447C5.26785 24.0215 2.00233e-06 36.7392 0 50L19.0081 50C19.0081 41.7804 22.2733 33.8975 28.0854 28.0854C33.8975 22.2733 41.7804 19.0081 50 19.0081C58.2196 19.0081 66.1025 22.2733 71.9146 28.0854C77.7267 33.8975 80.9919 41.7804 80.9919 50H100Z"/>
</mask>
<path d="M100 50C100 36.7392 94.7322 24.0215 85.3553 14.6447C75.9785 5.26784 63.2608 1.00116e-06 50 0C36.7392 -1.00116e-06 24.0215 5.26784 14.6447 14.6447C5.26785 24.0215 2.00233e-06 36.7392 0 50L19.0081 50C19.0081 41.7804 22.2733 33.8975 28.0854 28.0854C33.8975 22.2733 41.7804 19.0081 50 19.0081C58.2196 19.0081 66.1025 22.2733 71.9146 28.0854C77.7267 33.8975 80.9919 41.7804 80.9919 50H100Z" fill="#70CAB1" stroke="#272725" stroke-width="6" mask="url(#path-1-inside-1_17_557)"/>
</svg>
