<svg width="211" height="211" viewBox="0 0 211 211" fill="none" xmlns="http://www.w3.org/2000/svg">
<circle cx="105.5" cy="105.5" r="104" fill="#F6CA46" stroke="#272725" stroke-width="3"/>
<path d="M173.779 164.721L147.5 138.654C157.701 125.935 162.641 109.792 161.304 93.5425C159.967 77.2933 152.456 62.1738 140.314 51.2928C128.172 40.4119 112.323 34.5965 96.0248 35.0424C79.7269 35.4884 64.2192 42.1618 52.6905 53.6905C41.1618 65.2192 34.4884 80.7269 34.0424 97.0248C33.5965 113.323 39.4119 129.172 50.2928 141.314C61.1738 153.456 76.2933 160.967 92.5425 162.304C108.792 163.641 124.935 158.701 137.654 148.5L163.721 174.567C164.379 175.231 165.163 175.757 166.026 176.117C166.889 176.477 167.815 176.662 168.75 176.662C169.685 176.662 170.611 176.477 171.474 176.117C172.337 175.757 173.121 175.231 173.779 174.567C175.056 173.246 175.769 171.481 175.769 169.644C175.769 167.807 175.056 166.042 173.779 164.721ZM97.9166 148.5C88.1099 148.5 78.5235 145.592 70.3696 140.144C62.2156 134.695 55.8604 126.951 52.1076 117.891C48.3547 108.831 47.3728 98.8616 49.286 89.2434C51.1992 79.6252 55.9215 70.7902 62.8559 63.8559C69.7902 56.9215 78.6252 52.1992 88.2434 50.286C97.8616 48.3728 107.831 49.3547 116.891 53.1076C125.952 56.8604 133.695 63.2156 139.144 71.3696C144.592 79.5235 147.5 89.1099 147.5 98.9166C147.5 112.067 142.276 124.679 132.977 133.977C123.679 143.276 111.067 148.5 97.9166 148.5Z" fill="#272725"/>
</svg>
